PathFileType	4	(X/Y/Z)	OpenSim_Sub09_EMGStiffKnee_Gyro.trc
DataRate	CameraRate	NumFrames	NumMarkers	Units	OrigDataRate	OrigDataStartFrame	OrigNumFrames
100	100	38	8	m	100	4741	7584
Frame#	Time	torso_imu_offset_imu	pelvis_imu_offset_imu	tibia_r_imu_offset_imu	femur_r_imu_offset_imu	tibia_l_imu_offset_imu	femur_l_imu_offset_imu	toes_r_imu_offset_imu	toes_l_imu_offset_imu
				X1	Y1	Z1	X2	Y2	Z2	X3	Y3	Z3	X4	Y4	Z4	X5	Y5	Z5	X6	Y6	Z6	X7	Y7	Z7	X8		Y8	Z8	

4741	47.40000000	-0.10223181	-0.42180562	-0.11950021	-0.22321129	0.19251164	0.22099427	0.21441027	1.67284012	3.77130751	1.21862032	0.35493196	1.05815083	0.08215200	-0.04327089	0.67255977	-0.25272932	-0.22450520	0.67415430	0.16042031	3.21266866	1.62558672	-0.20828111	0.05534608	0.22998569
4742	47.41000000	-0.07218727	-0.43875327	-0.04809963	-0.10363657	0.16209511	0.23600035	0.02440107	1.72512435	3.67362220	1.23929806	0.36319505	1.05613405	0.17453819	-0.00020452	0.69440938	-0.16768641	-0.23044039	0.64777542	0.17340213	3.17216113	1.60025181	-0.23141654	0.06504277	0.24825887
4743	47.42000000	-0.04526700	-0.45494509	-0.01113500	0.00991228	0.13624411	0.26870250	-0.03647794	1.74217983	3.59002002	1.17545583	0.33933429	1.02356942	0.26370983	0.03212980	0.69450902	-0.05994739	-0.21957722	0.61207289	0.14171378	3.06136120	1.54724017	-0.24379075	0.06019497	0.27128811
4744	47.43000000	-0.00030786	-0.45693623	0.03698784	0.11497958	0.11650590	0.30003205	-0.02475511	1.72823136	3.48918469	1.06784475	0.25740098	0.93694813	0.34508216	0.06780290	0.68827841	0.06445691	-0.20400863	0.58285725	0.09162521	2.86063902	1.48783353	-0.23871986	0.07264732	0.28311764
4745	47.44000000	0.06064118	-0.45449600	0.06509586	0.19974805	0.09983895	0.33729726	0.04561858	1.74455778	3.35532397	0.97923754	0.14178364	0.81986487	0.43715166	0.07341097	0.71746092	0.20944763	-0.18989706	0.56459273	0.04291272	2.69395743	1.46925959	-0.23235625	0.08480702	0.29980896
4746	47.45000000	0.11505259	-0.43883543	0.10427433	0.28314752	0.09212155	0.36121680	0.10442352	1.81185487	3.21975155	0.90961632	0.02396770	0.67212755	0.49164240	0.06119284	0.75103269	0.34651134	-0.15794913	0.56323166	0.06245231	2.55236064	1.46031483	-0.22341023	0.08573633	0.32663911
4747	47.46000000	0.16128611	-0.41179090	0.13270577	0.38231336	0.10211986	0.37413040	0.12408004	1.86246941	3.10901669	0.80931258	-0.07403637	0.52178255	0.55625615	0.06670157	0.76508402	0.44603675	-0.09423769	0.57013122	0.16075523	2.40471888	1.44664885	-0.25130372	0.07932912	0.37843611
4748	47.47000000	0.21866390	-0.38644782	0.16994201	0.47349345	0.10368308	0.36523694	0.10689669	1.82693570	3.00368928	0.65640455	-0.15712675	0.37913921	0.59343482	0.08743783	0.76148038	0.51305835	-0.02634911	0.57747298	0.32757845	2.33240864	1.43492283	-0.26065496	0.06374316	0.42816735
4749	47.48000000	0.26384514	-0.36327223	0.19672990	0.54478894	0.10037989	0.34165603	0.05100293	1.72696943	2.89448049	0.49141146	-0.22035583	0.24015663	0.63235979	0.11361535	0.79722733	0.53132587	0.03179878	0.58024190	0.53024183	2.35380081	1.40834185	-0.25206447	0.03497345	0.47949251
4750	47.49000000	0.25763347	-0.34757326	0.23693284	0.61191800	0.10171936	0.29765665	0.07798338	1.64565503	2.76636936	0.36700192	-0.25727636	0.12173456	0.72908081	0.13086213	0.87586461	0.52256085	0.07503715	0.58231893	0.70166063	2.37193497	1.32726924	-0.21236854	0.01986727	0.50281016
4751	47.50000000	0.28485636	-0.33816458	0.26720726	0.67995849	0.11615519	0.25623424	0.22478850	1.58191271	2.60828556	0.31289367	-0.26286177	0.02901536	0.77653981	0.15274202	0.94604846	0.52027574	0.09514008	0.57177858	0.76250045	2.29312064	1.18987850	-0.17618955	-0.02784191	0.51402773
4752	47.51000000	0.33332208	-0.33761255	0.29728294	0.71934654	0.13960810	0.20507153	0.37236690	1.51289427	2.46904741	0.32943594	-0.23516456	-0.04860834	0.84059668	0.21199599	0.97566577	0.49625040	0.11388830	0.56547360	0.67764872	2.09641017	1.02728566	-0.14223332	-0.08920454	0.52081748
4753	47.52000000	0.35551450	-0.31085766	0.32947421	0.74930834	0.15121908	0.15819258	0.45102320	1.40979991	2.36993073	0.42505047	-0.16836540	-0.10357769	0.96413373	0.24113447	1.01263501	0.45686178	0.13708295	0.54482110	0.45735331	1.90850820	0.88703845	-0.08397700	-0.16341986	0.49455858
4754	47.53000000	0.38717105	-0.26757938	0.36718894	0.76641298	0.15470236	0.12144438	0.46422711	1.28663991	2.26454734	0.58399281	-0.06779372	-0.13464714	1.00097669	0.22594185	1.10477023	0.41373623	0.16908250	0.51492097	0.12965944	1.77185194	0.76722962	-0.02639081	-0.22831216	0.49517669
4755	47.54000000	0.44967983	-0.24013983	0.38744484	0.76927310	0.14565961	0.08770522	0.39567472	1.09190773	2.09653496	0.77420903	0.05805932	-0.13307648	0.86404408	0.25663274	1.17258710	0.38031514	0.21131880	0.49120729	-0.18834632	1.55505024	0.64631623	-0.01662941	-0.32988526	0.50619441
4756	47.55000000	0.50753125	-0.22230691	0.40780556	0.76669739	0.12506907	0.06860765	0.19717942	0.81228020	1.88679581	0.96352482	0.19823209	-0.09169784	0.64988931	0.27960280	1.18474313	0.35819909	0.29559782	0.48715620	-0.44866365	1.29826292	0.56088357	-0.02522241	-0.44917501	0.51318053
4757	47.56000000	0.55534146	-0.19543162	0.42703717	0.76250829	0.08042009	0.06122551	0.00936108	0.53333593	1.62237245	1.13233023	0.32789009	-0.03317563	0.53972062	0.23286504	1.18864348	0.32249170	0.39866539	0.49786707	-0.64092339	1.11581442	0.44270024	-0.08613126	-0.58115569	0.52558945
4758	47.57000000	0.59939787	-0.17289683	0.42985891	0.75873925	0.03123911	0.05409337	-0.17211947	0.31419032	1.24886539	1.30594151	0.44400372	0.04359169	0.52311728	0.30502776	1.25232303	0.32207768	0.48934589	0.50231050	-0.69649545	0.90906574	0.24754320	-0.05149307	-0.72780066	0.53859416
4759	47.58000000	0.61423780	-0.13190353	0.43036475	0.75000066	-0.02201232	0.04361694	-0.42174210	0.10600468	0.86873285	1.47405629	0.46300872	0.10550414	0.47680438	0.27695546	1.30580413	0.33004579	0.53430835	0.53441822	-0.66307044	0.68890252	0.02630721	-0.07446126	-0.86015496	0.54445385
4760	47.59000000	0.63311266	-0.07654530	0.44099554	0.73691069	-0.06375551	0.02539425	-0.71512446	-0.10479519	0.55228845	1.61987613	0.37572098	0.16012834	0.54015644	0.36793101	1.37773540	0.37143804	0.55012081	0.57387878	-0.57614478	0.52523900	-0.17947255	-0.06216335	-0.98631766	0.54422393
4761	47.60000000	0.63368552	-0.01437614	0.43406879	0.74187173	-0.12098772	-0.00023092	-0.91659224	-0.31589010	0.26926279	1.67770940	0.23715408	0.21763454	0.57396378	0.41368299	1.42868262	0.46032859	0.55975435	0.59256365	-0.41324687	0.35443051	-0.34881072	-0.10419241	-1.09325917	0.56710557
4762	47.61000000	0.61190060	0.05291732	0.41923031	0.75910669	-0.19022665	-0.01263895	-0.89852989	-0.48124151	-0.05669480	1.58936007	0.06693467	0.27482227	0.55928224	0.39531649	1.46022101	0.56877044	0.57751903	0.60919990	-0.34272218	0.16326809	-0.52198593	-0.13861556	-1.20954370	0.60656239
4763	47.62000000	0.59710970	0.12196489	0.38601378	0.83505712	-0.24778396	-0.01595988	-0.64614553	-0.58119590	-0.40797008	1.29892980	-0.15851591	0.32902102	0.64233872	0.48939188	1.54212898	0.68646470	0.57000513	0.60911471	0.00718772	-1.70143041	-0.90980702	-0.10708538	-1.34264336	0.61277673
4764	47.63000000	0.59431591	0.17223999	0.36364616	0.96150195	-0.21487800	0.05605166	-0.13708154	-0.94425288	-0.67267214	0.83855116	-0.41029343	0.34537652	0.74452574	0.49186578	1.64086996	0.79966758	0.57041129	0.59627694	1.07505070	-3.42907734	-1.19672423	-0.08516814	-1.47917065	0.61314550
4765	47.64000000	0.58171781	0.19928785	0.36042440	0.98028599	-0.09859930	0.19360440	-0.27261089	-1.72586202	-0.78493107	0.21954237	-0.63274220	0.31848471	0.76592488	0.57012479	1.71842439	0.86007797	0.59815039	0.57981828	-0.35247527	-6.23285038	-0.37070937	-0.05049983	-1.66196409	0.61041252
4766	47.65000000	0.49348899	0.17821009	0.34710812	0.89076137	0.12686155	0.39934495	-0.40065841	-2.36038291	-1.33406063	-0.60759629	-0.91929917	0.27812029	0.76382615	0.61116138	1.75718675	0.86056927	0.66250978	0.55530514	0.06527660	-5.74939344	-0.94065167	-0.06277051	-1.85733096	0.62637324
4767	47.66000000	0.36499403	0.11176028	0.31055979	0.54974450	0.26144415	0.65523276	-1.38114714	-2.02344962	-2.08545817	-1.44460743	-1.09511049	0.25218228	0.72142346	0.62771443	1.80835874	0.81819724	0.71324063	0.49651726	1.98237278	-4.72628544	-1.30462801	-0.09431627	-2.06316413	0.69027933
4768	47.67000000	0.27908685	0.05767181	0.18978002	0.20181733	0.21015472	0.72713825	-0.75290310	-0.51611963	-2.05360455	-1.71053465	-0.82666487	0.29444604	0.43767937	0.64448466	1.80753814	0.70610765	0.73107093	0.40687791	0.01285844	-3.98419153	-0.87621026	-0.20312473	-2.29750458	0.83222889
4769	47.68000000	0.17750924	0.04041335	0.08893946	-0.03129189	0.09573041	0.44964091	2.62235575	0.37879935	-1.83893502	-2.27885400	-0.68493851	0.70488380	0.27562080	0.51358209	1.71580234	0.52252727	0.70812651	0.31128590	0.01733453	-3.39849329	-0.74772039	-0.33897900	-2.54433512	1.08158587
4770	47.69000000	0.03239898	0.01900946	0.09311431	-0.12054043	-0.03604941	0.06507684	5.58233705	0.29296132	-1.80588934	-2.24714760	-0.84701608	1.49931871	0.10352711	0.44174850	1.64203495	0.37292384	0.61903644	0.24598992	0.02721153	-2.55640865	-0.66898314	-0.54147972	-2.83734012	1.40342240
4771	47.70000000	-0.10927693	-0.03341617	0.05051041	-0.12395682	-0.12165008	-0.15774915	6.43442086	0.21131619	-1.86526776	-0.78580136	-0.97136480	1.64833483	-0.03236112	0.42374870	1.61051879	0.28994322	0.47511546	0.19288974	-0.20662799	-2.60612979	-0.60925699	-0.54125363	-3.02466058	1.69454090
4772	47.71000000	-0.16509572	-0.11446917	-0.02445004	-0.06920988	-0.10615727	-0.24184338	6.50442021	0.19479767	-1.92032528	0.35733605	-0.69132307	1.25076842	-0.06822984	0.31312144	1.62393277	0.26050868	0.47453325	0.10402307	1.60954971	-1.40176452	-0.57700024	-0.45826908	-3.15254199	1.90491750
4773	47.72000000	-0.14316119	-0.20333765	-0.07774780	-0.07384768	-0.01657144	-0.20969784	5.65305116	-0.06582997	-1.79204349	0.52324750	-0.38952529	0.96104152	-0.02622334	0.27815083	1.65135527	0.13390603	0.69568272	0.01099925	0.98796450	-1.14009895	-0.44374536	-0.39729634	-3.13668462	2.04291376
4774	47.73000000	-0.09618556	-0.25472412	-0.10073024	-0.04160015	0.01516089	-0.15322580	3.07714166	-0.54431471	-1.53116400	0.10766331	-0.40611134	0.57584333	-0.00748397	0.28238894	1.65772793	-0.03216997	0.88729805	-0.04493328	0.73718713	-0.64007410	-0.37406921	-0.47967210	-3.07091011	2.08514998
4775	47.74000000	-0.03368802	-0.25332988	-0.13180315	0.07761375	0.06543684	-0.00896332	0.65209168	-1.18391615	-1.63258507	-0.26816973	-0.56442704	0.14441234	-0.02368721	0.22297555	1.61063141	-0.09284450	0.88138090	-0.14261797	0.75675671	-0.41532098	-0.37131696	-0.40227345	-2.77109832	2.07625634
4776	47.75000000	0.00581777	-0.18737758	-0.11092450	0.26410258	0.13985075	0.10843540	-0.62437251	-1.84551153	-1.98715284	-0.44264694	-0.66897854	-0.35335013	-0.21227481	0.19178986	1.60022023	-0.04524531	0.74844527	-0.29661130	0.70227193	-0.33618452	-0.33510542	-0.38654655	-2.45213344	2.09440089
4777	47.76000000	-0.01443747	-0.11369386	-0.13357142	0.42500589	0.18317470	0.18895814	-1.55457313	-1.98951410	-1.62741384	-0.56498740	-0.70253041	-0.98427696	-0.46740464	0.12427504	1.66219598	0.06945085	0.58662519	-0.47512521	0.55547364	-0.28649939	-0.29320852	-0.24354307	-2.24083780	2.08335294
4778	47.77000000	-0.07399200	-0.06885302	-0.16643800	0.54645475	0.18436172	0.24905545	-2.02742997	-1.23791450	-0.56647452	-0.68949372	-0.69528778	-1.42776611	-0.65282888	0.08639091	1.69792127	0.29815489	0.45243590	-0.64369376	0.41625026	-0.19299082	-0.19292338	-0.17724476	-1.98068095	2.03959236
